/* XPM */
static char * helm_logo_32_1x_xpm[] = {
"32 32 290 2",
"  	c None",
". 	c #FFCF32",
"+ 	c #FFCE30",
"@ 	c #58ACF4",
"# 	c #4CA8F4",
"$ 	c #49A8F4",
"% 	c #4BABF4",
"& 	c #FFCA26",
"* 	c #FFD21E",
"= 	c #FFD315",
"- 	c #FFD20D",
"; 	c #FFD20E",
"> 	c #FFD314",
", 	c #FFD322",
"' 	c #FFCB03",
") 	c #DDC187",
"! 	c #7FAEE7",
"~ 	c #009FFF",
"{ 	c #32A3FF",
"] 	c #34A3FF",
"^ 	c #2FA4FF",
"/ 	c #38A5FF",
"( 	c #3EA2F4",
"_ 	c #48A9F4",
": 	c #FFC923",
"< 	c #FFD311",
"[ 	c #FFC600",
"} 	c #FFC300",
"| 	c #FEC316",
"1 	c #FDC322",
"2 	c #FEC421",
"3 	c #FDC321",
"4 	c #FDC31E",
"5 	c #FFC626",
"6 	c #FFCA00",
"7 	c #FDC716",
"8 	c #B1ADB1",
"9 	c #008FF7",
"0 	c #0095F6",
"a 	c #2595F3",
"b 	c #1894F3",
"c 	c #1D96F6",
"d 	c #2CA3FF",
"e 	c #3DA1F4",
"f 	c #FFCD30",
"g 	c #FFD61C",
"h 	c #FFC500",
"i 	c #FFC401",
"j 	c #FFC40F",
"k 	c #FFC700",
"l 	c #FFCD00",
"m 	c #CDB595",
"n 	c #2194F0",
"o 	c #1F97F4",
"p 	c #2697F3",
"q 	c #2196F3",
"r 	c #1E95F4",
"s 	c #1C96F5",
"t 	c #37A8FF",
"u 	c #FFD519",
"v 	c #FFC404",
"w 	c #FFC40E",
"x 	c #EDBF62",
"y 	c #DABA8D",
"z 	c #DDBB89",
"A 	c #DCBA8A",
"B 	c #DCBB8A",
"C 	c #DBBA8B",
"D 	c #DCB98B",
"E 	c #E4C07B",
"F 	c #8CA7D2",
"G 	c #0093F8",
"H 	c #2C97F2",
"I 	c #2096F3",
"J 	c #2296F3",
"K 	c #1994F3",
"L 	c #33A7FF",
"M 	c #FFC71A",
"N 	c #FEC402",
"O 	c #FEC411",
"P 	c #F7C135",
"Q 	c #6B9FE1",
"R 	c #0096FB",
"S 	c #0298F5",
"T 	c #0098F7",
"U 	c #0098F6",
"V 	c #319AF3",
"W 	c #2097F3",
"X 	c #2197F3",
"Y 	c #2196F2",
"Z 	c #2396F3",
"` 	c #349DF4",
" .	c #FFC922",
"..	c #FFD104",
"+.	c #FFC402",
"@.	c #FFC403",
"#.	c #FEC417",
"$.	c #F0BD53",
"%.	c #4997EB",
"&.	c #1695F4",
"*.	c #3196F1",
"=.	c #2C96F2",
"-.	c #2D96F1",
";.	c #2A96F2",
">.	c #2396F2",
",.	c #2B97F2",
"'.	c #2196F4",
").	c #24A0FF",
"!.	c #3AA1F4",
"~.	c #FFC613",
"{.	c #FEC416",
"].	c #F0BD4E",
"^.	c #3796EE",
"/.	c #0096FC",
"(.	c #0097F8",
"_.	c #0097F9",
":.	c #0997F6",
"<.	c #2497F3",
"[.	c #1E97F5",
"}.	c #2C9AF3",
"|.	c #FFCE07",
"1.	c #FFC40A",
"2.	c #FBC104",
"3.	c #969CBA",
"4.	c #4B90DC",
"5.	c #6093D6",
"6.	c #5C92D7",
"7.	c #5C92D8",
"8.	c #5F92D5",
"9.	c #4295E7",
"0.	c #1597F5",
"a.	c #2195F3",
"b.	c #269EFF",
"c.	c #FFC614",
"d.	c #FFD003",
"e.	c #FFC409",
"f.	c #FDC200",
"g.	c #F5BC13",
"h.	c #F5BD10",
"i.	c #F5BD0F",
"j.	c #F4BC24",
"k.	c #FCBF00",
"l.	c #BEACA0",
"m.	c #0092F9",
"n.	c #2F97F2",
"o.	c #239FFF",
"p.	c #2D9AF4",
"q.	c #FFC408",
"r.	c #FFC501",
"s.	c #FFC512",
"t.	c #FFC601",
"u.	c #FFC51D",
"v.	c #FFC900",
"w.	c #D5B386",
"x.	c #0091F5",
"y.	c #2B98F3",
"z.	c #2597F3",
"A.	c #FDC303",
"B.	c #FFC40B",
"C.	c #FFC400",
"D.	c #FFC406",
"E.	c #D2B084",
"F.	c #0090F5",
"G.	c #2C98F3",
"H.	c #2094F1",
"I.	c #F8BE04",
"J.	c #F9C339",
"K.	c #F9C337",
"L.	c #F8C23F",
"M.	c #BBAAA3",
"N.	c #0091F9",
"O.	c #3098F2",
"P.	c #2091EB",
"Q.	c #FFCC03",
"R.	c #FFC40C",
"S.	c #FCC314",
"T.	c #A1AAC7",
"U.	c #5FA0E9",
"V.	c #70A2E3",
"W.	c #6CA2E4",
"X.	c #6DA2E4",
"Y.	c #6FA2E3",
"Z.	c #4A9BEC",
"`.	c #0F96F4",
" +	c #2296F4",
".+	c #229CFD",
"++	c #F8BF03",
"@+	c #FFC703",
"#+	c #FEC403",
"$+	c #F1BE50",
"%+	c #3496EE",
"&+	c #0093FA",
"*+	c #0094F6",
"=+	c #0094F7",
"-+	c #0094F8",
";+	c #0196F5",
">+	c #2195F2",
",+	c #2298F7",
"'+	c #2191EC",
")+	c #EBB403",
"!+	c #FFD103",
"~+	c #F0BD52",
"{+	c #4C99EC",
"]+	c #2198F6",
"^+	c #3799F3",
"/+	c #3299F4",
"(+	c #3399F4",
"_+	c #3399F3",
":+	c #2F98F4",
"<+	c #2A98F4",
"[+	c #2D97F2",
"}+	c #23A0FF",
"|+	c #1F8ADF",
"1+	c #F1B903",
"2+	c #FFC803",
"3+	c #FEC303",
"4+	c #FEC410",
"5+	c #F6BF2E",
"6+	c #6095D9",
"7+	c #008DF4",
"8+	c #0090EF",
"9+	c #008FF0",
"0+	c #008EF0",
"a+	c #0090F0",
"b+	c #2694EE",
"c+	c #2299F8",
"d+	c #1F8FE6",
"e+	c #FFCA03",
"f+	c #FEC302",
"g+	c #FFC40D",
"h+	c #E8B74E",
"i+	c #D1AD77",
"j+	c #D5AF73",
"k+	c #D4AE73",
"l+	c #D2AD75",
"m+	c #D8B278",
"n+	c #CFA75D",
"o+	c #698FC7",
"p+	c #2997F2",
"q+	c #229BFA",
"r+	c #D6A404",
"s+	c #FFC503",
"t+	c #FEC401",
"u+	c #FEC40D",
"v+	c #FFC800",
"w+	c #FFCB00",
"x+	c #FFC000",
"y+	c #B19B87",
"z+	c #1793EE",
"A+	c #2297F4",
"B+	c #2197F6",
"C+	c #2299F7",
"D+	c #1E7FCB",
"E+	c #E8B204",
"F+	c #FFCD03",
"G+	c #FFC515",
"H+	c #FFC51F",
"I+	c #FFC51E",
"J+	c #FFC61C",
"K+	c #FFC822",
"L+	c #E6B100",
"M+	c #9091A4",
"N+	c #008FF4",
"O+	c #1798F8",
"P+	c #2697F5",
"Q+	c #2198F7",
"R+	c #239DFE",
"S+	c #1F89DD",
"T+	c #D7A605",
"U+	c #E6B103",
"V+	c #FCC204",
"W+	c #FFC902",
"X+	c #FDC30A",
"Y+	c #E7B200",
"Z+	c #B79559",
"`+	c #5588C7",
" @	c #0096FD",
".@	c #2C9DFD",
"+@	c #279BFA",
"@@	c #219AF9",
"#@	c #2195F0",
"$@	c #1F88DA",
"%@	c #1D80CC",
"&@	c #D2A304",
"*@	c #D7A505",
"=@	c #D2A305",
"-@	c #3280C7",
";@	c #207FCA",
">@	c #1C7FCC",
",@	c #1F7EC9",
"                                                                ",
"                                                                ",
"                                                                ",
"                                                                ",
"                                                                ",
"                    . + + .         @ # $ %                     ",
"              + & * = - ; > , ' ) ! ~ { ] ^ / ( _               ",
"            : < [ } | 1 2 3 4 5 6 7 8 9 0 a b c d e             ",
"        f g h } i j [ k [ [ [ [ h [ l m n o p q r s t $         ",
"        u } v v w h x y z A A B z C D E F G H I J J K L         ",
"      M h v N O h P Q R S T T T T U T T V W W X q Y Z s `       ",
"     ...+.@.i #.[ $.%.&.*.=.=.=.=.=.-.;.>.,.p W X q q '.).!.    ",
"    ~.[ v @.i {.[ ].^./.(._._._._._._._._._.:.<.W X q q [.}.    ",
"    |.i @.@.@.1.h 2.3.4.5.6.6.6.6.6.6.6.7.8.9.0.Z X q q a.b.    ",
"  c.d.@.@.@.@.+.e.h f.g.h.h.h.h.h.h.h.i.j.k.l.m.n.I q q q o.p.  ",
"  q.d.@.@.@.@.@.r.q.s.[ t.t.t.t.t.t.t.[ u.v.w.x.y.J X X q o.z.  ",
"  A.d.@.@.@.@.@.r.B.v h h C.h h C.h C.C.D.k E.F.G.J q q q o.H.  ",
"  I.d.@.@.@.@.i B.h h J.K.K.K.K.K.K.K.K.L.h M.N.O.I q q q o.P.  ",
"    Q.@.@.@.+.R.h S.T.U.V.W.X.X.X.X.X.X.W.Y.Z.`.<.X q q  +.+    ",
"    ++@+#+@.i #.[ $+%+&+*+=+=+=+=+=+=+=+=+-+;+<.W X X >+,+'+    ",
"    )+!+@.@.i #.[ ~+{+]+^+/+(+(+(+/+_+:+<+[+p W X q q '.}+|+    ",
"      1+2+3+N 4+[ 5+6+7+8+9+9+9+9+9+0+a+b+I W X q Y a.c+d+      ",
"        e+@+@.f+g+h h+i+j+k+k+k+k+l+m+n+o+(.p+I Y a.,+q+        ",
"        r+2+2+s+t+u+k v+v+v+k k v+w+x+y+z+A+>.>+B+c+C+D+        ",
"            E+F+2+t.G+H+I+I+J+K+h L+M+N+O+P+Q+c+R+S+            ",
"              T+U+V+W+w+w+v.X+Y+Z+`+ @.@+@@@#@$@%@              ",
"                    &@*@*@=@        -@;@>@,@                    ",
"                                                                ",
"                                                                ",
"                                                                ",
"                                                                ",
"                                                                "};
